<svg width="28" height="28" viewBox="0 0 28 28" fill="none" xmlns="http://www.w3.org/2000/svg" aria-hidden="true">
  <path d="M14 2.5C7.75 2.5 2.7 7.42 2.7 13.5C2.7 15.58 3.3 17.52 4.35 19.18L3 25.5L9.5 24.02C10.88 24.68 12.4 25.05 14 25.05C20.25 25.05 25.3 20.13 25.3 14.05C25.3 7.98 20.25 2.5 14 2.5Z" fill="#16A36F"/>
  <path d="M20.18 17.22C19.9 18 18.75 18.68 17.98 18.78C17.38 18.86 16.6 18.9 13.95 17.82C10.57 16.44 8.42 13.02 8.25 12.8C8.08 12.58 6.9 11.05 6.9 9.48C6.9 7.9 7.72 7.14 8.02 6.82C8.3 6.52 8.65 6.45 8.85 6.45H9.45C9.64 6.45 9.9 6.38 10.15 6.98C10.43 7.66 11.12 9.22 11.2 9.38C11.28 9.55 11.33 9.75 11.23 9.98C11.12 10.2 11.07 10.34 10.9 10.54C10.73 10.74 10.55 10.98 10.4 11.14C10.23 11.31 10.05 11.49 10.25 11.82C10.45 12.15 11.12 13.22 12.12 14.1C13.4 15.24 14.48 15.59 14.82 15.76C15.15 15.94 15.35 15.91 15.55 15.69C15.75 15.46 16.4 14.73 16.62 14.41C16.85 14.08 17.08 14.14 17.4 14.26C17.72 14.38 19.42 15.18 19.78 15.35C20.13 15.53 20.37 15.61 20.45 15.75C20.53 15.9 20.53 16.45 20.18 17.22Z" fill="white"/>
</svg>
